HIERARCHY
ROOT joint_0
{
	OFFSET 0.000000 0.000000 0.000000
	CHANNELS 6 Xposition Yposition Zposition Zrotation Yrotation Xrotation 
	JOINT joint_1
	{
		OFFSET 4.520508 -1.939880 86.268921
		CHANNELS 3 Zrotation Yrotation Xrotation
		JOINT joint_2
		{
			OFFSET -4.459717 -0.438538 78.934082
			CHANNELS 3 Zrotation Yrotation Xrotation
			JOINT joint_3
			{
				OFFSET -5.197754 -0.781128 78.796997
				CHANNELS 3 Zrotation Yrotation Xrotation
				JOINT joint_4
				{
					OFFSET 2.952026 -3.710571 109.812988
					CHANNELS 3 Zrotation Yrotation Xrotation
					JOINT joint_5
					{
						OFFSET 24.716797 -5.488037 87.903931
						CHANNELS 3 Zrotation Yrotation Xrotation
						End Site
						{
							OFFSET 0.000000 0.000000 0.000000
						}
					}
				}
				JOINT joint_6
				{
					OFFSET -3.154419 -25.484680 60.934937
					CHANNELS 3 Zrotation Yrotation Xrotation
					JOINT joint_7
					{
						OFFSET -28.997192 -144.472229 -32.671997
						CHANNELS 3 Zrotation Yrotation Xrotation
						JOINT joint_8
						{
							OFFSET 19.867676 -18.614380 -249.897949
							CHANNELS 3 Zrotation Yrotation Xrotation
							JOINT joint_9
							{
								OFFSET 5.281982 -13.816650 -264.993042
								CHANNELS 3 Zrotation Yrotation Xrotation
								End Site
								{
									OFFSET 0.000000 0.000000 0.000000
								}
							}
						}
					}
				}
				JOINT joint_10
				{
					OFFSET 6.494995 21.336792 62.257935
					CHANNELS 3 Zrotation Yrotation Xrotation
					JOINT joint_11
					{
						OFFSET 31.106567 145.200745 -27.007935
						CHANNELS 3 Zrotation Yrotation Xrotation
						JOINT joint_12
						{
							OFFSET 29.119141 24.684326 -248.460083
							CHANNELS 3 Zrotation Yrotation Xrotation
							JOINT joint_13
							{
								OFFSET 21.220093 31.248413 -262.703979
								CHANNELS 3 Zrotation Yrotation Xrotation
								End Site
								{
									OFFSET 0.000000 0.000000 0.000000
								}
							}
						}
					}
				}
			}
		}
	}
	JOINT joint_14
	{
		OFFSET -15.458496 -88.861694 -109.593018
		CHANNELS 3 Zrotation Yrotation Xrotation
		JOINT joint_15
		{
			OFFSET -6.193359 6.837952 -506.710999
			CHANNELS 3 Zrotation Yrotation Xrotation
			JOINT joint_16
			{
				OFFSET -35.096680 13.289795 -435.677025
				CHANNELS 3 Zrotation Yrotation Xrotation
				JOINT joint_17
				{
					OFFSET 158.491211 -33.916565 -71.771002
					CHANNELS 3 Zrotation Yrotation Xrotation
					End Site
					{
						OFFSET 0.000000 0.000000 0.000000
					}
				}
			}
		}
	}
	JOINT joint_18
	{
		OFFSET 23.116943 86.574158 -110.082031
		CHANNELS 3 Zrotation Yrotation Xrotation
		JOINT joint_19
		{
			OFFSET -6.125854 -0.283569 -506.757019
			CHANNELS 3 Zrotation Yrotation Xrotation
			JOINT joint_20
			{
				OFFSET -63.240234 11.589966 -432.537994
				CHANNELS 3 Zrotation Yrotation Xrotation
				JOINT joint_21
				{
					OFFSET 156.074219 -41.487305 -73.077999
					CHANNELS 3 Zrotation Yrotation Xrotation
					End Site
					{
						OFFSET 0.000000 0.000000 0.000000
					}
				}
			}
		}
	}
}
MOTION
Frames: 12
Frame Time: 0.016667
-1309.572998 835.153137 1140.844971 16.441875 0.957668 0.539208 -0.628975 -1.325197 -0.801762 -0.559603 0.278032 0.143838 -0.579819 -0.241349 -0.096238 -0.149784 -0.278005 0.473698 0.000000 0.000000 0.000000 0.032743 0.816524 -1.203521 0.032063 0.474490 0.520569 -0.022338 0.239448 -0.240558 0.000000 0.000000 0.000000 0.342091 0.061478 0.495601 -0.124733 0.266378 -0.831543 0.133260 0.111454 1.491679 0.000000 0.000000 0.000000 -1.023269 1.633047 -2.757729 -1.085405 -4.395710 -1.088833 -0.914652 2.723847 0.168942 0.000000 0.000000 0.000000 -1.788838 1.133682 1.677548 -1.718710 -3.566674 -1.343175 -1.641760 1.383140 -0.398869 0.000000 0.000000 0.000000 
-1309.644775 835.105652 1140.853027 16.422126 0.952701 0.541350 -0.622376 -1.336572 -0.815029 -0.551586 0.280995 0.150236 -0.572549 -0.244862 -0.100756 -0.150744 -0.301983 0.471652 0.000000 0.000000 0.000000 0.042476 0.816554 -1.203883 0.035559 0.469574 0.552290 -0.020854 0.217857 -0.249134 0.000000 0.000000 0.000000 0.334974 0.057163 0.503107 -0.123699 0.262075 -0.817500 0.136387 0.124620 1.509482 0.000000 0.000000 0.000000 -1.017589 1.634854 -2.759462 -1.079871 -4.403361 -1.088694 -0.908731 2.732141 0.173412 0.000000 0.000000 0.000000 -1.782214 1.137294 1.674758 -1.712181 -3.568399 -1.341440 -1.635475 1.387872 -0.394677 0.000000 0.000000 0.000000 
-1309.722412 835.060669 1140.860962 16.403619 0.948130 0.542871 -0.616298 -1.347304 -0.823983 -0.544517 0.283357 0.153991 -0.565973 -0.248427 -0.103969 -0.151438 -0.321266 0.469699 0.000000 0.000000 0.000000 0.050589 0.815202 -1.204085 0.038990 0.463117 0.583145 -0.019121 0.193284 -0.256425 0.000000 0.000000 0.000000 0.329440 0.054084 0.511253 -0.122402 0.258673 -0.802375 0.139228 0.137092 1.524722 0.000000 0.000000 0.000000 -1.012092 1.635650 -2.759991 -1.074492 -4.409995 -1.090003 -0.903129 2.740290 0.177705 0.000000 0.000000 0.000000 -1.775816 1.139063 1.672881 -1.705876 -3.568020 -1.340469 -1.629598 1.391433 -0.390988 0.000000 0.000000 0.000000 
-1309.803955 835.018738 1140.869995 16.386905 0.945489 0.543768 -0.611530 -1.361516 -0.828566 -0.539166 0.287292 0.154335 -0.560788 -0.251400 -0.105188 -0.152744 -0.335754 0.471017 0.000000 0.000000 0.000000 0.056147 0.810777 -1.202166 0.041885 0.454601 0.608727 -0.017178 0.166790 -0.260194 0.000000 0.000000 0.000000 0.327426 0.052119 0.520680 -0.120847 0.255868 -0.786399 0.141588 0.148259 1.535901 0.000000 0.000000 0.000000 -1.007329 1.634233 -2.759360 -1.069831 -4.416675 -1.092259 -0.898271 2.749543 0.181898 0.000000 0.000000 0.000000 -1.769995 1.137167 1.672543 -1.700137 -3.565133 -1.341405 -1.624614 1.394050 -0.387968 0.000000 0.000000 0.000000 
-1309.891968 834.977051 1140.880005 16.371917 0.942971 0.543920 -0.607573 -1.373093 -0.830079 -0.534967 0.288464 0.153017 -0.556464 -0.253696 -0.104030 -0.153279 -0.345691 0.470634 0.000000 0.000000 0.000000 0.059515 0.804579 -1.200025 0.044587 0.444289 0.632343 -0.014981 0.137420 -0.261876 0.000000 0.000000 0.000000 0.326839 0.051469 0.529569 -0.118904 0.253648 -0.768450 0.143633 0.158949 1.543662 0.000000 0.000000 0.000000 -1.002858 1.631987 -2.757102 -1.065435 -4.422304 -1.096162 -0.893855 2.758628 0.185854 0.000000 0.000000 0.000000 -1.764661 1.133641 1.673488 -1.694865 -3.560143 -1.343362 -1.620304 1.396194 -0.385391 0.000000 0.000000 0.000000 
-1309.987793 834.941406 1140.890015 16.359743 0.939256 0.543860 -0.603809 -1.384469 -0.828998 -0.531129 0.291131 0.151220 -0.552532 -0.256197 -0.103541 -0.153736 -0.349813 0.471303 0.000000 0.000000 0.000000 0.059935 0.798037 -1.196075 0.047295 0.433567 0.654840 -0.012963 0.109927 -0.265115 0.000000 0.000000 0.000000 0.325178 0.051371 0.539028 -0.116971 0.252542 -0.751626 0.145684 0.169972 1.550852 0.000000 0.000000 0.000000 -0.999512 1.629801 -2.755850 -1.062138 -4.425242 -1.098157 -0.890542 2.766692 0.189089 0.000000 0.000000 0.000000 -1.760256 1.130770 1.673750 -1.690544 -3.555173 -1.344314 -1.616751 1.398792 -0.383046 0.000000 0.000000 0.000000 
-1310.096558 834.910461 1140.901001 16.352188 0.932849 0.542987 -0.601029 -1.390963 -0.826756 -0.528330 0.291542 0.150940 -0.549674 -0.257412 -0.102727 -0.153035 -0.346353 0.469595 0.000000 0.000000 0.000000 0.055607 0.790350 -1.190677 0.050121 0.421182 0.675890 -0.011282 0.086147 -0.271063 0.000000 0.000000 0.000000 0.321355 0.051720 0.548072 -0.115082 0.252440 -0.735930 0.147677 0.180808 1.557605 0.000000 0.000000 0.000000 -0.997841 1.628130 -2.755675 -1.060477 -4.423169 -1.096540 -0.888896 2.772165 0.191012 0.000000 0.000000 0.000000 -1.757423 1.129211 1.673682 -1.687806 -3.549210 -1.343673 -1.614522 1.401698 -0.381241 0.000000 0.000000 0.000000 
-1310.214111 834.885254 1140.911987 16.347785 0.925285 0.541610 -0.598241 -1.396751 -0.820660 -0.525870 0.292945 0.148652 -0.547051 -0.258719 -0.102044 -0.152451 -0.337600 0.469520 0.000000 0.000000 0.000000 0.047061 0.782237 -1.183385 0.052980 0.408031 0.695748 -0.009833 0.064936 -0.278753 0.000000 0.000000 0.000000 0.315668 0.052624 0.557613 -0.113160 0.253521 -0.720994 0.149545 0.191330 1.563248 0.000000 0.000000 0.000000 -0.997217 1.626414 -2.756008 -1.059839 -4.418370 -1.093351 -0.888303 2.776748 0.192265 0.000000 0.000000 0.000000 -1.755621 1.128199 1.673188 -1.686114 -3.543181 -1.341914 -1.613127 1.405047 -0.379709 0.000000 0.000000 0.000000 
-1310.331299 834.862305 1140.921021 16.344778 0.916927 0.540779 -0.595221 -1.402983 -0.814934 -0.523069 0.294981 0.147607 -0.544153 -0.260395 -0.101088 -0.151700 -0.326264 0.469436 0.000000 0.000000 0.000000 0.039472 0.775878 -1.174531 0.055433 0.397761 0.713064 -0.008527 0.045693 -0.286006 0.000000 0.000000 0.000000 0.311723 0.054807 0.565820 -0.111340 0.255584 -0.707551 0.151391 0.201691 1.568857 0.000000 0.000000 0.000000 -0.997012 1.626618 -2.756017 -1.059629 -4.415291 -1.092129 -0.888164 2.781460 0.193340 0.000000 0.000000 0.000000 -1.754130 1.129664 1.672408 -1.684682 -3.540997 -1.341126 -1.611899 1.410824 -0.377608 0.000000 0.000000 0.000000 
-1310.442627 834.844116 1140.926025 16.341642 0.908332 0.539983 -0.591733 -1.411558 -0.807204 -0.519928 0.296564 0.145801 -0.540852 -0.262084 -0.099942 -0.150800 -0.313311 0.469193 0.000000 0.000000 0.000000 0.034852 0.772837 -1.164429 0.057321 0.392359 0.727834 -0.007235 0.026929 -0.291874 0.000000 0.000000 0.000000 0.310574 0.059340 0.572170 -0.109418 0.259226 -0.694677 0.153331 0.212986 1.573973 0.000000 0.000000 0.000000 -0.996929 1.628784 -2.754754 -1.059571 -4.415016 -1.093759 -0.888202 2.787246 0.194568 0.000000 0.000000 0.000000 -1.752897 1.134843 1.671612 -1.683436 -3.545230 -1.340690 -1.610547 1.418743 -0.374876 0.000000 0.000000 0.000000 
-1310.554932 834.829773 1140.930054 16.339522 0.899241 0.539567 -0.587674 -1.421470 -0.798125 -0.516255 0.299949 0.144167 -0.537126 -0.265052 -0.099809 -0.150421 -0.297570 0.471430 0.000000 0.000000 0.000000 0.031552 0.771639 -1.151546 0.058727 0.390361 0.739604 -0.006092 0.010316 -0.297020 0.000000 0.000000 0.000000 0.310586 0.065446 0.577198 -0.107491 0.264069 -0.682358 0.155158 0.223576 1.578842 0.000000 0.000000 0.000000 -0.996826 1.632340 -2.753188 -1.059503 -4.416255 -1.097342 -0.888267 2.794089 0.196010 0.000000 0.000000 0.000000 -1.751887 1.142001 1.670531 -1.682370 -3.552980 -1.340957 -1.609280 1.429452 -0.371440 0.000000 0.000000 0.000000 
-1310.680298 834.817017 1140.932983 16.339984 0.890758 0.539290 -0.583100 -1.428205 -0.786420 -0.512315 0.302610 0.141920 -0.532976 -0.267197 -0.098094 -0.149799 -0.284610 0.472185 0.000000 0.000000 0.000000 0.030001 0.771011 -1.139224 0.059911 0.389651 0.749412 -0.005275 -0.002014 -0.302471 0.000000 0.000000 0.000000 0.313889 0.070238 0.579643 -0.106221 0.267243 -0.674205 0.156848 0.232946 1.584130 0.000000 0.000000 0.000000 -0.997636 1.636056 -2.751844 -1.060374 -4.420187 -1.101155 -0.889080 2.802334 0.197416 0.000000 0.000000 0.000000 -1.751523 1.146406 1.669336 -1.681995 -3.558347 -1.341755 -1.608837 1.438896 -0.368725 0.000000 0.000000 0.000000 
